<svg id="icons" enable-background="new 0 0 64 64" height="512" viewBox="0 0 64 64" width="512" xmlns="http://www.w3.org/2000/svg"><path d="m52.5 39.99v13.01c0 1.66-1.34 3-3 3s-3-1.34-3-3v-13.01z" fill="#656d78"/><path d="m57.5 19v20.99h-5-6v-31.99c6.08 0 11 4.92 11 11z" fill="#e6e9ed"/><path d="m46.5 8v.425c4.616 1.307 7.997 5.538 7.997 10.575v20.99h3.003v-20.99c0-6.08-4.92-11-11-11z" fill="#f5f7fa"/><path d="m7.74 31.99h31.53c-.13 1.359-.27 2.7-.42 4h-30.69c-.14-1.3-.29-2.64-.42-4z" fill="#965353"/><path d="m6.5 12h34.01c0 1.28-.029 2.61-.069 4h-.011-33.86c-.04-1.39-.07-2.72-.07-4z" fill="#844747"/><path d="m40.51 12h-34.01c0-2.21 1.79-4 4-4h11.01 4 10.99c2.22 0 4.01 1.79 4.01 4z" fill="#965353"/><path d="m39.65 27.99h.01c-.12 1.34-.25 2.68-.391 4h-31.529c-.141-1.32-.271-2.66-.391-4h.011z" fill="#844747"/><path d="m10.21 51.98h26.59c-.19 1.29-.3 2.02-.3 2.02-.21 1.43-.89 2-2 2h-8.99-4-9.01c-1.1 0-1.79-.57-2-2h.01s-.11-.73-.3-2.02z" fill="#844747"/><path d="m9.65 47.98h27.71c-.221 1.63-.41 2.989-.561 4h-26.589c-.15-1.01-.34-2.37-.56-4z" fill="#965353"/><path d="m38.38 39.99h.01c-.17 1.399-.34 2.75-.5 4h-28.76c-.17-1.25-.33-2.601-.5-4z" fill="#965353"/><path d="m40.25 20h.01c-.08 1.31-.17 2.65-.27 4h-.01-32.95c-.11-1.35-.2-2.69-.28-4h.01z" fill="#844747"/><path d="m8.16 35.99h30.69c-.149 1.38-.31 2.72-.46 4h-.01-29.75c-.16-1.28-.32-2.62-.47-4z" fill="#844747"/><path d="m40.43 16h.011c-.051 1.3-.11 2.64-.181 4h-.01-33.49-.01c-.07-1.36-.13-2.7-.18-4z" fill="#965353"/><path d="m25.51 56.01v6.99h-4v-6.99-.01h4z" fill="#ccd1d9"/><path d="m9.13 43.99h28.76c-.189 1.45-.359 2.79-.529 3.99h-27.711c-.16-1.2-.34-2.54-.52-3.99z" fill="#844747"/><path d="m39.98 24h.01c-.101 1.32-.21 2.66-.33 3.99h-.01-32.29-.01c-.12-1.33-.23-2.67-.32-3.99z" fill="#965353"/><path d="m37.507 12h3.003c0-2.21-1.79-4-4.01-4h-3.003c2.22 0 4.01 1.79 4.01 4z" fill="#844747"/><path d="m37.507 12c0 1.28-.029 2.61-.069 4h2.992.011c.04-1.39.069-2.72.069-4z" fill="#773e3e"/><path d="m37.438 16c-.051 1.3-.11 2.64-.181 4h2.993.01c.07-1.36.13-2.7.181-4h-.011z" fill="#844747"/><path d="m37.257 20c-.08 1.31-.17 2.65-.27 4h2.993.01c.1-1.35.189-2.69.27-4h-.01z" fill="#773e3e"/><path d="m36.987 24c-.101 1.32-.21 2.66-.33 3.99h2.993.01c.12-1.33.229-2.67.33-3.99h-.01z" fill="#844747"/><path d="m36.657 27.99c-.12 1.34-.25 2.68-.391 4h3.003c.141-1.32.271-2.66.391-4h-.01z" fill="#773e3e"/><path d="m35.847 35.99h3.003c.15-1.3.29-2.641.42-4h-3.003c-.13 1.36-.27 2.7-.42 4z" fill="#844747"/><path d="m35.387 39.99h2.993.01c.15-1.28.311-2.62.46-4h-3.003c-.15 1.38-.31 2.72-.46 4z" fill="#773e3e"/><path d="m35.387 39.99c-.17 1.399-.34 2.75-.5 4h3.003c.16-1.25.33-2.601.5-4h-.01z" fill="#844747"/><path d="m34.357 47.98h3.003c.17-1.2.34-2.54.529-3.99h-3.003c-.189 1.45-.359 2.79-.529 3.99z" fill="#773e3e"/><path d="m33.797 51.98h3.003c.15-1.011.34-2.37.561-4h-3.003c-.221 1.63-.411 2.99-.561 4z" fill="#844747"/><path d="m33.497 54c-.21 1.43-.89 2-2 2h3.003c1.11 0 1.79-.57 2-2 0 0 .11-.73.3-2.02h-3.003c-.19 1.29-.3 2.02-.3 2.02z" fill="#773e3e"/><path d="m25.51 7.99v.01h-4v-.01-6.99h4z" fill="#ccd1d9"/><g fill="#aab2bd"><path d="m49.53 51.002c-.553 0-1.005-.447-1.005-1s.442-1 .994-1h.011c.552 0 1 .447 1 1s-.448 1-1 1z"/><path d="m49.53 46.002c-.553 0-1.005-.447-1.005-1s.442-1 .994-1h.011c.552 0 1 .447 1 1s-.448 1-1 1z"/></g></svg>